<svg width="381" height="51" viewBox="0 0 381 51" fill="none" xmlns="http://www.w3.org/2000/svg">
<rect x="0.554688" width="380" height="51" rx="6" fill="white"/>
<rect x="1.05469" y="0.5" width="379" height="50" rx="5.5" stroke="black" stroke-opacity="0.12"/>
<path fillRule="evenodd" clipRule="evenodd" d="M160.695 26.0792C160.695 25.441 160.637 24.8274 160.531 24.2383H152.055V27.7196H156.898C156.69 28.8446 156.056 29.7978 155.102 30.436V32.6942H158.011C159.713 31.1274 160.695 28.8201 160.695 26.0792Z" fill="#4285F4"/>
<path fillRule="evenodd" clipRule="evenodd" d="M152.054 34.8759C154.484 34.8759 156.521 34.07 158.011 32.6955L155.102 30.4373C154.296 30.9773 153.265 31.2964 152.054 31.2964C149.71 31.2964 147.726 29.7132 147.018 27.5859H144.011V29.9178C145.492 32.8591 148.536 34.8759 152.054 34.8759Z" fill="#34A853"/>
<path fillRule="evenodd" clipRule="evenodd" d="M147.019 27.5838C146.839 27.0438 146.737 26.467 146.737 25.8738C146.737 25.2807 146.839 24.7038 147.019 24.1638V21.832H144.012C143.402 23.047 143.055 24.4216 143.055 25.8738C143.055 27.3261 143.402 28.7007 144.012 29.9157L147.019 27.5838Z" fill="#FBBC05"/>
<path fillRule="evenodd" clipRule="evenodd" d="M152.054 20.4545C153.376 20.4545 154.562 20.9086 155.495 21.8005L158.076 19.2191C156.517 17.7668 154.48 16.875 152.054 16.875C148.536 16.875 145.492 18.8918 144.011 21.8332L147.018 24.165C147.726 22.0377 149.71 20.4545 152.054 20.4545Z" fill="#EA4335"/>
<path d="M179.975 18.585C179.975 20.82 179.855 22.695 179.525 24.285H181.58V25.53H176.285V31.185H174.755V25.53H169.505V24.285H178.055C178.31 23.1 178.415 21.39 178.43 19.845H171.035V18.585H179.975ZM193.523 31.005H183.968V27.495H191.498V26.355H183.893V25.155H193.028V28.575H185.498V29.775H193.523V31.005ZM192.968 18.345C192.983 20.145 192.818 21.435 192.548 22.605H194.558V23.85H182.483V22.605H191.078C191.303 21.795 191.438 20.61 191.438 19.575H184.028V18.345H192.968ZM210.307 26.025H206.182V28.26H211.477V29.49H199.402V28.26H204.652V26.025H200.947V21.705H208.387V19.98H200.902V18.75H209.917V22.95H202.492V24.78H210.307V26.025ZM224.456 29.235H212.381V27.99H224.456V29.235ZM222.881 19.26C222.881 22.8 222.656 25.305 222.296 27.06L220.781 26.865C221.111 25.53 221.336 22.635 221.336 20.475H213.776V19.26H222.881ZM236.354 27.51H234.824V17.82H236.354V27.51ZM236.669 30.795H227.519V26.595H229.049V29.565H236.669V30.795ZM232.604 22.08C232.604 23.985 231.224 25.35 229.184 25.35C227.144 25.35 225.734 23.985 225.734 22.095C225.734 20.19 227.129 18.81 229.184 18.81C231.224 18.81 232.604 20.175 232.604 22.08ZM231.074 22.08C231.074 20.91 230.354 20.085 229.184 20.085C228.044 20.085 227.279 20.94 227.279 22.08C227.279 23.175 228.044 24.045 229.184 24.045C230.354 24.045 231.074 23.175 231.074 22.08Z" fill="black" fill-opacity="0.85"/>
</svg>
