<svg width="381" height="51" viewBox="0 0 381 51" fill="none" xmlns="http://www.w3.org/2000/svg">
<rect x="0.554688" width="380" height="51" rx="6" fill="#FEE500"/>
<g clipPath="url(#clip0_842_10474)">
<path fillRule="evenodd" clipRule="evenodd" d="M145.555 17.1016C140.584 17.1016 136.555 20.2145 136.555 24.0538C136.555 26.4416 138.113 28.5465 140.486 29.7985L139.488 33.4461C139.399 33.7684 139.768 34.0252 140.051 33.8385L144.428 30.9498C144.797 30.9854 145.173 31.0062 145.555 31.0062C150.525 31.0062 154.555 27.8934 154.555 24.0538C154.555 20.2145 150.525 17.1016 145.555 17.1016Z" fill="black"/>
</g>
<path d="M169.77 19.215C169.755 23.79 167.67 26.85 163.845 28.86L162.855 27.75C164.79 26.865 166.41 25.44 167.325 23.595L163.41 24.015L163.17 22.68L167.835 22.335C168 21.735 168.12 21.12 168.165 20.46H163.845V19.215H169.77ZM173.385 17.82V23.04H175.455V24.315H173.385V31.185H171.84V17.82H173.385ZM182.748 19.215C182.733 23.79 180.648 26.85 176.823 28.86L175.833 27.75C177.768 26.865 179.388 25.44 180.303 23.595L176.388 24.015L176.148 22.68L180.813 22.335C180.978 21.735 181.098 21.12 181.143 20.46H176.823V19.215H182.748ZM186.363 17.82V23.04H188.433V24.315H186.363V31.185H184.818V17.82H186.363ZM201.037 29.475H188.962V28.245H194.212V25.965C191.737 25.725 190.162 24.315 190.162 22.32C190.162 20.115 192.097 18.645 194.992 18.645C197.932 18.645 199.852 20.115 199.852 22.32C199.852 24.33 198.247 25.74 195.742 25.98V28.245H201.037V29.475ZM198.307 22.335C198.307 20.91 197.002 19.905 194.992 19.905C193.027 19.905 191.707 20.91 191.707 22.335C191.707 23.745 193.027 24.705 194.992 24.705C196.987 24.705 198.307 23.745 198.307 22.335ZM216.786 26.025H212.661V28.26H217.956V29.49H205.881V28.26H211.131V26.025H207.426V21.705H214.866V19.98H207.381V18.75H216.396V22.95H208.971V24.78H216.786V26.025ZM230.934 29.235H218.859V27.99H230.934V29.235ZM229.359 19.26C229.359 22.8 229.134 25.305 228.774 27.06L227.259 26.865C227.589 25.53 227.814 22.635 227.814 20.475H220.254V19.26H229.359ZM242.833 27.51H241.303V17.82H242.833V27.51ZM243.148 30.795H233.998V26.595H235.528V29.565H243.148V30.795ZM239.083 22.08C239.083 23.985 237.703 25.35 235.663 25.35C233.623 25.35 232.213 23.985 232.213 22.095C232.213 20.19 233.608 18.81 235.663 18.81C237.703 18.81 239.083 20.175 239.083 22.08ZM237.553 22.08C237.553 20.91 236.833 20.085 235.663 20.085C234.523 20.085 233.758 20.94 233.758 22.08C233.758 23.175 234.523 24.045 235.663 24.045C236.833 24.045 237.553 23.175 237.553 22.08Z" fill="black" fill-opacity="0.85"/>
<defs>
<clipPath id="clip0_842_10474">
<rect width="17.9999" height="18" fill="white" transform="translate(136.555 16.5)"/>
</clipPath>
</defs>
</svg>
