<svg xmlns="http://www.w3.org/2000/svg">
<symbol id="logo" viewBox="0 0 150 66">
<g clip-path="url(#a)">
<path fill="#fff" d="M75 0C33.58 0 0 14.776 0 33.003s33.58 33.003 75 33.003c41.419 0 75-14.776 75-33.003S116.419 0 75 0zM53.084 23.749c-.161 1.042-.465 1.52-1.284 2.133-.818.612-2.052.919-3.69.919h-8.235v15.555c0 1.421-.415 2.383-1.63 3.444-1.024.889-1.576.938-3.424.938-1.581 0-1.891-.227-2.97-1.036-1.086-.81-1.625-1.925-1.625-3.346V26.8h-8.707c-1.643 0-2.871-.307-3.69-.92-.819-.612-1.073-1.458-1.228-2.5-.186-1.213.087-2.721 1.396-3.745.837-.655 2.133-1.146 3.944-1.146h25.754c1.848 0 3.2.307 4.056.901 1.284.889 1.513 3.23 1.34 4.358h-.007zm1.581 9.217c0-8.034 4.093-14.543 9.148-14.543 5.054 0 9.147 6.515 9.147 14.543 0 1.44-.137 2.832-.379 4.15-.8-2.63-2.79-4.499-5.122-4.499-3.039 0-5.5 3.162-5.5 7.06 0 3.635 2.139 6.625 4.892 7.018-.948.533-1.966.82-3.032.82-5.048 0-9.147-6.514-9.147-14.543l-.006-.006zm27.956 17.136c-.334 1.98-2.331 5.718-7.46 5.718-5.128 0-7.125-3.738-7.466-5.718a1.535 1.535 0 0 1 1.271-1.765 1.549 1.549 0 0 1 1.786 1.244c.062.337.726 3.181 4.41 3.181 3.683 0 4.34-2.856 4.402-3.18a1.552 1.552 0 0 1 1.799-1.233 1.53 1.53 0 0 1 1.258 1.753zm12-12.987c-.8-2.629-2.79-4.498-5.122-4.498-3.039 0-5.5 3.162-5.5 7.06 0 3.635 2.139 6.625 4.892 7.018-.949.533-1.966.82-3.032.82-5.048 0-9.147-6.514-9.147-14.543 0-8.028 4.093-14.543 9.147-14.543s9.147 6.515 9.147 14.543c0 1.44-.137 2.832-.379 4.15l-.006-.007zm36.769 8.9c-1.042.76-1.321.906-2.667.906-.881 0-1.662-.135-2.35-.404-.689-.27-1.297-.76-1.824-1.471l-7.727-11.111-7.609 4.786v3.64c0 1.422-.452 2.538-1.358 3.347-.905.809-2.139 1.213-3.69 1.213-1.55 0-2.319-.404-3.224-1.213-.906-.81-1.359-1.925-1.359-3.346V24.049c0-1.422.453-2.537 1.359-3.346.905-.81 1.674-1.214 3.224-1.214 1.551 0 2.779.405 3.69 1.214.906.809 1.358 1.924 1.358 3.346v5.222l13.147-7.76c1.625-.912 2.549-1.513 3.163-1.856a4.504 4.504 0 0 1 2.164-.564c1.29 0 2.028.484 2.878 1.238.849.76 1.283 1.87 1.283 2.727 0 .564-.136 1.06-.415 1.49-.279.428-.781.95-1.513 1.562l-5.799 3.604 7.92 11.166c.676.907 1.011 1.741 1.011 2.501 0 1.079-.608 1.875-1.65 2.635h-.012z"/>
</g>
<defs>
<clipPath id="a">
<path fill="#fff" d="M0 0h150v66H0z"/>
</clipPath>
</defs>
</symbol>
</svg>